<?xml version="1.0" encoding="UTF-8" standalone="no"?>
<svg
   xmlns:dc="http://purl.org/dc/elements/1.1/"
   xmlns:cc="http://creativecommons.org/ns#"
   xmlns:rdf="http://www.w3.org/1999/02/22-rdf-syntax-ns#"
   xmlns:svg="http://www.w3.org/2000/svg"
   xmlns="http://www.w3.org/2000/svg"
   xmlns:sodipodi="http://sodipodi.sourceforge.net/DTD/sodipodi-0.dtd"
   xmlns:inkscape="http://www.inkscape.org/namespaces/inkscape"
   width="81.810997"
   height="27.264"
   viewBox="0 0 81.810997 27.264"
   version="1.1"
   id="svg30"
   sodipodi:docname="weship.svg"
   style="fill:none"
   inkscape:version="0.92.5 (2060ec1f9f, 2020-04-08)">
  <metadata
     id="metadata34">
    <rdf:RDF>
      <cc:Work
         rdf:about="">
        <dc:format>image/svg+xml</dc:format>
        <dc:type
           rdf:resource="http://purl.org/dc/dcmitype/StillImage" />
        <dc:title></dc:title>
      </cc:Work>
    </rdf:RDF>
  </metadata>
  <sodipodi:namedview
     pagecolor="#ffffff"
     bordercolor="#666666"
     borderopacity="1"
     objecttolerance="10"
     gridtolerance="10"
     guidetolerance="10"
     inkscape:pageopacity="0"
     inkscape:pageshadow="2"
     inkscape:window-width="2560"
     inkscape:window-height="1278"
     id="namedview32"
     showgrid="false"
     fit-margin-top="0"
     fit-margin-left="0"
     fit-margin-right="0"
     fit-margin-bottom="0"
     inkscape:zoom="7.4252874"
     inkscape:cx="54.152941"
     inkscape:cy="14.057248"
     inkscape:window-x="1920"
     inkscape:window-y="44"
     inkscape:window-maximized="1"
     inkscape:current-layer="svg30" />
  <path
     d="m 23.751,5.927 c -2.554,0.593 -4.427,2.202 -5.363,4.403 -0.085,0.254 -0.17,0.424 -0.255,0.678 -0.085,0.169 -0.085,0.423 -0.17,0.592 -0.086,0.254 -0.086,0.508 -0.17,0.678 -0.086,0.423 -0.086,0.847 -0.086,1.355 0,2.201 0.681,4.064 1.958,5.419 l 0.085,0.084 c 1.447,1.61 3.66,2.54 6.13,2.54 1.787,0 3.575,-0.423 5.022,-1.27 0.511,-0.254 0.851,-0.762 0.851,-1.354 0,-0.847 -0.766,-1.61 -1.617,-1.61 -0.255,0 -0.51,0.085 -0.766,0.17 -0.937,0.508 -2.128,0.847 -3.065,0.847 -2.639,0 -4.171,-1.609 -4.427,-3.556 h 8.94 c 1.531,0 2.383,-0.593 2.383,-1.863 0,-3.98 -3.065,-7.367 -7.662,-7.367 -0.596,0.085 -1.192,0.085 -1.788,0.254 z m -1.788,5.927 c 0,-0.254 0.086,-0.423 0.17,-0.592 0.512,-1.186 1.533,-2.286 3.491,-2.286 2.64,0 3.66,1.947 3.746,3.386 h -7.492 c 0,-0.254 0,-0.423 0.085,-0.508 z"
     id="path2"
     inkscape:connector-curvature="0"
     style="clip-rule:evenodd;fill:url(#paint0_linear);fill-rule:evenodd" />
  <path
     d="M 9.28,7.452 6.385,16.258 3.83,7.282 C 3.574,6.436 2.893,5.843 1.957,5.843 0.851,5.843 0,6.69 0,7.79 0,7.96 0,8.214 0.085,8.383 L 3.49,19.475 c 0.34,1.186 1.448,1.948 2.725,1.948 a 2.756,2.756 0 0 0 2.639,-1.948 l 2.724,-8.552 2.639,8.552 c 0.34,1.186 1.447,1.948 2.724,1.948 a 2.756,2.756 0 0 0 2.639,-1.948 l 0.085,-0.423 v -0.085 l 2.213,-7.282 0.17,-0.592 1.618,-5.25 c -2.468,0.593 -4.341,2.201 -5.278,4.403 -0.085,0.254 -0.17,0.423 -0.255,0.677 l -0.17,0.593 -0.17,0.677 -1.107,3.98 -2.895,-8.806 C 13.536,6.436 12.599,5.758 11.578,5.758 10.471,5.843 9.535,6.52 9.279,7.452 Z"
     id="path4"
     inkscape:connector-curvature="0"
     style="clip-rule:evenodd;fill:url(#paint1_linear);fill-rule:evenodd" />
  <path
     d="m 74.575,7.705 c 2.893,0 5.021,2.71 5.021,6.011 0,3.302 -2.128,6.097 -5.021,6.097 -1.789,0 -3.917,-1.44 -4.683,-2.71 v -6.688 c 0.852,-1.355 2.894,-2.71 4.683,-2.71 z m 0.169,13.97 c 4.001,0 7.067,-3.048 7.067,-7.959 0,-4.91 -3.066,-7.874 -7.067,-7.874 -2.128,0 -4.086,0.762 -4.852,1.947 V 7.281 c 0,-0.677 -0.596,-1.185 -1.192,-1.185 -0.681,0 -1.192,0.593 -1.192,1.185 v 18.798 c 0,0.676 0.51,1.185 1.192,1.185 0.68,0 1.192,-0.593 1.192,-1.185 v -6.436 c 0.766,1.016 2.809,2.032 4.852,2.032 z M 62.656,7.282 c 0,-0.592 0.51,-1.185 1.191,-1.185 0.596,0 1.192,0.508 1.192,1.185 v 13.04 c 0,0.593 -0.51,1.185 -1.192,1.185 -0.68,-0.084 -1.19,-0.593 -1.19,-1.185 V 7.282 Z M 62.231,1.609 C 62.231,0.762 62.911,0 63.762,0 c 0.852,0 1.618,0.762 1.618,1.61 0,0.846 -0.766,1.523 -1.618,1.523 -0.766,0 -1.531,-0.677 -1.531,-1.524 z M 49.887,7.452 c 0,0 1.361,-1.948 4.34,-1.948 3.15,0 5.96,1.863 5.96,5.165 v 9.653 c 0,0.593 -0.51,1.185 -1.192,1.185 -0.681,-0.084 -1.192,-0.593 -1.192,-1.185 v -8.975 c 0.171,-2.456 -1.531,-3.726 -3.575,-3.726 -1.787,0 -3.576,1.27 -4.341,2.71 v 9.99 c 0,0.593 -0.512,1.186 -1.193,1.186 -0.68,0 -1.192,-0.508 -1.192,-1.185 V 1.525 c 0,-0.593 0.511,-1.186 1.192,-1.186 0.596,0 1.193,0.508 1.193,1.186 z M 39.84,21.507 c 3.916,0 5.96,-2.032 5.96,-4.572 0,-3.303 -3.065,-4.064 -5.704,-4.657 -2.043,-0.423 -3.746,-0.931 -3.746,-2.37 0,-1.356 1.362,-2.287 3.405,-2.287 1.533,0 2.895,0.508 3.831,1.355 0.17,0.17 0.426,0.254 0.596,0.254 0.511,0 1.023,-0.508 1.023,-1.016 0,-0.254 -0.172,-0.593 -0.426,-0.762 -1.193,-1.016 -2.81,-1.694 -5.024,-1.694 -3.66,0 -5.703,1.948 -5.703,4.318 0,3.12 2.955,3.805 5.501,4.395 l 0.032,0.008 c 2.043,0.508 3.917,1.016 3.917,2.71 0,1.523 -1.278,2.54 -3.576,2.54 -1.703,0 -3.235,-0.593 -4.342,-1.524 -0.17,-0.085 -0.34,-0.17 -0.596,-0.17 -0.51,0 -1.021,0.424 -1.021,1.017 0,0.338 0.17,0.677 0.425,0.677 1.533,1.186 3.32,1.778 5.448,1.778 z"
     id="path6"
     inkscape:connector-curvature="0"
     style="clip-rule:evenodd;fill:#232a38;fill-rule:evenodd"
     sodipodi:nodetypes="sssccsssscsssssscscssscsccssssscssscscscsssssscsscsscsscssccsscsscs" />
  <defs
     id="defs28">
    <linearGradient
       id="paint0_linear"
       x1="19.298"
       x2="28.690001"
       y1="17.757999"
       y2="20.514999"
       gradientUnits="userSpaceOnUse"
       gradientTransform="translate(0,-0.735)">
      <stop
         stop-color="#2F3A8B"
         id="stop8" />
      <stop
         offset="0.052"
         stop-color="#2F3A8B"
         id="stop10" />
      <stop
         offset="0.357"
         stop-color="#36A9E1"
         id="stop12" />
      <stop
         offset="0.683"
         stop-color="#66C5DB"
         id="stop14" />
      <stop
         offset="1"
         stop-color="#66C5DB"
         id="stop16" />
    </linearGradient>
    <linearGradient
       id="paint1_linear"
       x1="0.022"
       x2="23.667"
       y1="22.162001"
       y2="22.162001"
       gradientUnits="userSpaceOnUse"
       gradientTransform="translate(0,-0.735)">
      <stop
         stop-color="#36A9E1"
         id="stop19" />
      <stop
         offset="0.308"
         stop-color="#3EADE1"
         id="stop21" />
      <stop
         offset="0.687"
         stop-color="#52B8DF"
         id="stop23" />
      <stop
         offset="1"
         stop-color="#66C5DB"
         id="stop25" />
    </linearGradient>
  </defs>
</svg>
